<svg xmlns="http://www.w3.org/2000/svg" viewBox="0 0 800 420" preserveAspectRatio="xMidYMid slice"><defs><linearGradient id="sky" x1="0" y1="0" x2="0" y2="1"><stop stop-color="#dbeafe"/><stop offset="1" stop-color="#eef2ff"/></linearGradient><linearGradient id="hill" x1="0" x2="1"><stop stop-color="#818cf8"/><stop offset="1" stop-color="#4f46e5"/></linearGradient></defs><rect width="800" height="420" fill="url(#sky)"/><circle cx="630" cy="92" r="44" fill="#fbbf24" opacity=".72"/><path d="M0 255C120 185 176 250 285 200s203 7 311-47c82-41 139-29 204 1v211H0Z" fill="#a7f3d0" opacity=".78"/><path d="M0 292c110-92 245 4 360-63 101-58 188 31 286-23 69-38 113-31 154-7v221H0Z" fill="url(#hill)" opacity=".84"/><path d="M117 257h17l-8-94Zm84 42h18l-9-120Zm417-8h18l-9-130Zm71 18h16l-8-100Z" fill="#1f4b43" opacity=".85"/><path d="M89 165h72M174 179h89M567 149h82" stroke="#fff" stroke-width="8" stroke-linecap="round" opacity=".45"/></svg>
